<?xml version="1.0" standalone="no"?>
<!DOCTYPE svg PUBLIC "-//W3C//DTD SVG 20010904//EN"
 "http://www.w3.org/TR/2001/REC-SVG-20010904/DTD/svg10.dtd">
<svg version="1.0" xmlns="http://www.w3.org/2000/svg"
 width="200.000000pt" height="200.000000pt" viewBox="0 0 200.000000 200.000000"
 preserveAspectRatio="xMidYMid meet">
<metadata>
Created by potrace 1.14, written by Peter Selinger 2001-2017
</metadata>
<g transform="translate(0.000000,200.000000) scale(0.100000,-0.100000)"
fill="#000000" stroke="none">
<path d="M867 1256 c-12 -31 13 -65 93 -126 89 -68 109 -96 90 -126 -11 -18
-11 -18 -6 -1 9 30 -10 54 -86 107 -47 33 -74 46 -79 39 -13 -21 2 -44 51 -77
26 -18 56 -42 66 -54 11 -11 -8 -2 -41 20 -33 22 -63 38 -67 35 -15 -9 -7 -34
17 -57 l25 -24 -37 -15 c-21 -8 -56 -23 -78 -33 -56 -24 -75 -26 -82 -9 -7 20
0 27 29 30 13 1 28 3 34 4 18 2 23 38 9 58 -11 15 -17 16 -51 4 -48 -15 -60
-14 -56 6 2 8 -6 24 -16 34 -17 16 -21 16 -26 3 -7 -19 18 -70 39 -78 9 -3 30
1 47 10 30 16 64 12 53 -6 -3 -5 -19 -10 -34 -10 -33 0 -51 -16 -51 -47 0 -32
33 -47 72 -34 l31 11 -7 -47 c-3 -26 -13 -57 -22 -70 -8 -13 -12 -33 -9 -43 8
-26 35 -27 28 -1 -7 26 60 99 100 109 18 5 52 4 77 -2 53 -11 51 -10 54 -28 5
-34 42 -108 55 -108 9 0 11 6 5 18 -4 9 -9 33 -12 53 -3 33 1 42 60 101 34 36
71 70 82 75 12 7 20 25 23 56 6 50 13 56 37 32 13 -14 16 -13 25 2 10 17 10
17 11 1 0 -10 4 -18 9 -18 14 0 22 30 12 48 -5 9 -10 22 -11 27 -2 6 -22 28
-46 51 -30 27 -44 35 -44 25 0 -14 -2 -14 -10 -1 -13 21 -22 7 -12 -21 8 -20
4 -27 -22 -47 -17 -12 -30 -25 -28 -28 4 -6 -10 -27 -29 -42 -14 -11 -16 -9
-11 13 4 21 -9 38 -72 102 -70 71 -76 75 -76 51 0 -15 5 -30 10 -33 6 -3 10
-11 10 -16 0 -12 -52 22 -96 63 -26 24 -32 27 -37 14z m168 -106 c10 -11 16
-20 13 -20 -3 0 -13 9 -23 20 -10 11 -16 20 -13 20 3 0 13 -9 23 -20z m66 -77
c6 -16 6 -30 1 -35 -6 -6 -11 4 -14 26 -5 43 -1 46 13 9z"/>
<path d="M1126 861 c-19 -21 -19 -22 5 -74 27 -58 36 -68 57 -60 12 5 10 9 -7
22 -15 12 -23 32 -29 75 l-7 58 -19 -21z"/>
<path d="M885 837 c-31 -23 -5 -107 34 -107 14 1 13 3 -3 15 -18 14 -18 26 0
88 6 20 -5 22 -31 4z"/>
</g>
</svg>
